HIERARCHY
ROOT Hips
{
    OFFSET 0.000000 0.000000 0.000000
    CHANNELS 6 Xposition Yposition Zposition Zrotation Xrotation Yrotation
    JOINT Spine
    {
        OFFSET 0.000001 7.292995 0.000000
        CHANNELS 3 Zrotation Xrotation Yrotation
        JOINT Spine1
        {
            OFFSET -0.000000 20.255388 0.000001
            CHANNELS 3 Zrotation Xrotation Yrotation
            JOINT Neck
            {
                OFFSET 0.000001 20.786594 0.000000
                CHANNELS 3 Zrotation Xrotation Yrotation
                JOINT Head
                {
                    OFFSET 0.000003 12.530788 1.776080
                    CHANNELS 3 Zrotation Xrotation Yrotation
                    End Site
                    {
                        OFFSET 0.000000 17.760757 0.000000
                    }
                }
            }
            JOINT LeftShoulder
            {
                OFFSET 3.550532 15.465697 -0.908801
                CHANNELS 3 Zrotation Xrotation Yrotation
                JOINT LeftArm
                {
                    OFFSET 12.513301 -0.000005 0.000001
                    CHANNELS 3 Zrotation Xrotation Yrotation
                    JOINT LeftForeArm
                    {
                        OFFSET 24.225992 0.000005 0.000000
                        CHANNELS 3 Zrotation Xrotation Yrotation
                        JOINT LeftHand
                        {
                            OFFSET 20.711395 -0.000004 0.000000
                            CHANNELS 3 Zrotation Xrotation Yrotation
                            JOINT LeftHandThumb1
                            {
                                OFFSET 2.121964 -2.411326 3.375861
                                CHANNELS 3 Zrotation Xrotation Yrotation
                                JOINT LeftHandThumb2
                                {
                                    OFFSET 2.803212 -0.000001 -0.000002
                                    CHANNELS 3 Zrotation Xrotation Yrotation
                                    JOINT LeftHandThumb3
                                    {
                                        OFFSET 2.395929 0.000000 0.000000
                                        CHANNELS 3 Zrotation Xrotation Yrotation
                                        End Site
                                        {
                                            OFFSET 2.127676 0.000000 0.000000
                                        }
                                    }
                                }
                            }
                            JOINT LeftHandIndex1
                            {
                                OFFSET 8.680776 0.000004 3.375861
                                CHANNELS 3 Zrotation Xrotation Yrotation
                                JOINT LeftHandIndex2
                                {
                                    OFFSET 4.218180 -0.000002 0.000001
                                    CHANNELS 3 Zrotation Xrotation Yrotation
                                    JOINT LeftHandIndex3
                                    {
                                        OFFSET 2.109090 0.000001 -0.000000
                                        CHANNELS 3 Zrotation Xrotation Yrotation
                                        End Site
                                        {
                                            OFFSET 1.872952 0.000000 0.000000
                                        }
                                    }
                                }
                            }
                            JOINT LeftHandMiddle1
                            {
                                OFFSET 8.680775 0.000001 1.118862
                                CHANNELS 3 Zrotation Xrotation Yrotation
                                JOINT LeftHandMiddle2
                                {
                                    OFFSET 4.640000 0.000002 -0.000000
                                    CHANNELS 3 Zrotation Xrotation Yrotation
                                    JOINT LeftHandMiddle3
                                    {
                                        OFFSET 2.530906 0.000005 0.000000
                                        CHANNELS 3 Zrotation Xrotation Yrotation
                                        End Site
                                        {
                                            OFFSET 2.247544 0.000000 0.000000
                                        }
                                    }
                                }
                            }
                            JOINT LeftHandRing1
                            {
                                OFFSET 8.198514 -0.000004 -1.118859
                                CHANNELS 3 Zrotation Xrotation Yrotation
                                JOINT LeftHandRing2
                                {
                                    OFFSET 4.218182 -0.000003 -0.000001
                                    CHANNELS 3 Zrotation Xrotation Yrotation
                                    JOINT LeftHandRing3
                                    {
                                        OFFSET 2.109086 0.000004 0.000001
                                        CHANNELS 3 Zrotation Xrotation Yrotation
                                        End Site
                                        {
                                            OFFSET 1.872952 0.000000 0.000000
                                        }
                                    }
                                }
                            }
                            JOINT LeftHandPinky1
                            {
                                OFFSET 7.716242 0.000005 -3.375859
                                CHANNELS 3 Zrotation Xrotation Yrotation
                                JOINT LeftHandPinky2
                                {
                                    OFFSET 3.374535 0.000004 0.000002
                                    CHANNELS 3 Zrotation Xrotation Yrotation
                                    JOINT LeftHandPinky3
                                    {
                                        OFFSET 1.687275 0.000002 -0.000001
                                        CHANNELS 3 Zrotation Xrotation Yrotation
                                        End Site
                                        {
                                            OFFSET 1.498360 0.000000 0.000000
                                        }
                                    }
                                }
                            }
                        }
                    }
                }
            }
            JOINT RightShoulder
            {
                OFFSET -3.550531 15.465694 -0.908802
                CHANNELS 3 Zrotation Xrotation Yrotation
                JOINT RightArm
                {
                    OFFSET -12.513298 -0.000004 0.000001
                    CHANNELS 3 Zrotation Xrotation Yrotation
                    JOINT RightForeArm
                    {
                        OFFSET -24.225996 -0.000002 -0.000000
                        CHANNELS 3 Zrotation Xrotation Yrotation
                        JOINT RightHand
                        {
                            OFFSET -20.711401 0.000005 0.000001
                            CHANNELS 3 Zrotation Xrotation Yrotation
                            JOINT RightHandThumb1
                            {
                                OFFSET -2.121970 -2.411334 3.375861
                                CHANNELS 3 Zrotation Xrotation Yrotation
                                JOINT RightHandThumb2
                                {
                                    OFFSET -2.803210 0.000003 -0.000004
                                    CHANNELS 3 Zrotation Xrotation Yrotation
                                    JOINT RightHandThumb3
                                    {
                                        OFFSET -2.395930 -0.000001 0.000002
                                        CHANNELS 3 Zrotation Xrotation Yrotation
                                        End Site
                                        {
                                            OFFSET -2.127676 0.000000 0.000000
                                        }
                                    }
                                }
                            }
                            JOINT RightHandIndex1
                            {
                                OFFSET -8.680779 0.000001 3.375860
                                CHANNELS 3 Zrotation Xrotation Yrotation
                                JOINT RightHandIndex2
                                {
                                    OFFSET -4.218180 0.000000 -0.000000
                                    CHANNELS 3 Zrotation Xrotation Yrotation
                                    JOINT RightHandIndex3
                                    {
                                        OFFSET -2.109090 0.000001 -0.000000
                                        CHANNELS 3 Zrotation Xrotation Yrotation
                                        End Site
                                        {
                                            OFFSET -1.872952 0.000000 0.000000
                                        }
                                    }
                                }
                            }
                            JOINT RightHandMiddle1
                            {
                                OFFSET -8.680780 0.000001 1.118860
                                CHANNELS 3 Zrotation Xrotation Yrotation
                                JOINT RightHandMiddle2
                                {
                                    OFFSET -4.640000 -0.000002 0.000001
                                    CHANNELS 3 Zrotation Xrotation Yrotation
                                    JOINT RightHandMiddle3
                                    {
                                        OFFSET -2.530910 0.000001 -0.000000
                                        CHANNELS 3 Zrotation Xrotation Yrotation
                                        End Site
                                        {
                                            OFFSET -2.247544 0.000000 0.000000
                                        }
                                    }
                                }
                            }
                            JOINT RightHandRing1
                            {
                                OFFSET -8.198519 0.000005 -1.118860
                                CHANNELS 3 Zrotation Xrotation Yrotation
                                JOINT RightHandRing2
                                {
                                    OFFSET -4.218180 -0.000006 0.000000
                                    CHANNELS 3 Zrotation Xrotation Yrotation
                                    JOINT RightHandRing3
                                    {
                                        OFFSET -2.109090 0.000001 -0.000000
                                        CHANNELS 3 Zrotation Xrotation Yrotation
                                        End Site
                                        {
                                            OFFSET -1.872952 0.000000 0.000000
                                        }
                                    }
                                }
                            }
                            JOINT RightHandPinky1
                            {
                                OFFSET -7.716248 -0.000002 -3.375859
                                CHANNELS 3 Zrotation Xrotation Yrotation
                                JOINT RightHandPinky2
                                {
                                    OFFSET -3.374540 0.000000 0.000000
                                    CHANNELS 3 Zrotation Xrotation Yrotation
                                    JOINT RightHandPinky3
                                    {
                                        OFFSET -1.687270 0.000004 0.000001
                                        CHANNELS 3 Zrotation Xrotation Yrotation
                                        End Site
                                        {
                                            OFFSET -1.498360 0.000000 0.000000
                                        }
                                    }
                                }
                            }
                        }
                    }
                }
            }
        }
    }
    JOINT LeftUpLeg
    {
        OFFSET 8.880376 -0.000000 -0.000000
        CHANNELS 3 Zrotation Xrotation Yrotation
        JOINT LeftLeg
        {
            OFFSET -0.000001 -40.387405 -0.000001
            CHANNELS 3 Zrotation Xrotation Yrotation
            JOINT LeftFoot
            {
                OFFSET -0.000001 -36.911297 -0.000001
                CHANNELS 3 Zrotation Xrotation Yrotation
                JOINT LeftToeBase
                {
                    OFFSET -0.000002 -5.772240 13.320604
                    CHANNELS 3 Zrotation Xrotation Yrotation
                    End Site
                    {
                        OFFSET 0.000000 0.000000 3.552151
                    }
                }
            }
        }
    }
    JOINT RightUpLeg
    {
        OFFSET -8.880376 0.000000 0.000000
        CHANNELS 3 Zrotation Xrotation Yrotation
        JOINT RightLeg
        {
            OFFSET -0.000001 -40.387390 0.000000
            CHANNELS 3 Zrotation Xrotation Yrotation
            JOINT RightFoot
            {
                OFFSET 0.000002 -36.911297 -0.000001
                CHANNELS 3 Zrotation Xrotation Yrotation
                JOINT RightToeBase
                {
                    OFFSET 0.000001 -5.772238 13.320600
                    CHANNELS 3 Zrotation Xrotation Yrotation
                    End Site
                    {
                        OFFSET 0.000000 0.000000 3.552151
                    }
                }
            }
        }
    }
}
MOTION
Frames: 4
Frame Time: 0.013889
56.041634    83.769173    27.982117    -0.632502    7.833326    0.697904    0.413055    -22.191504    1.093482    0.567203    15.310057    0.826865    -1.625969    -5.321636    -1.311179    0.947595    2.827551    -1.210428    -2.641101    6.224093    -0.547379    -63.111671    44.592525    -12.238623    -10.335849    -23.864170    -24.265503    -4.957694    4.955161    7.739052    29.206276    35.924473    -41.025215    -12.189980    -0.121579    23.317165    -0.000000    0.000000    -0.000000    -4.487336    17.948326    -1.947161    -4.268524    -0.000004    0.000005    -4.268544    0.000004    -0.000005    -3.679622    8.981757    -1.091035    -3.634431    -0.000005    0.000001    -3.634439    0.000000    -0.000002    -3.358650    -8.984801    -1.802968    -3.317388    -0.000002    -0.000000    -3.317382    0.000002    -0.000000    -3.154444    -17.974440    -3.530030    -3.000340    -0.000001    0.000001    -3.000346    -0.000002    -0.000001    7.402370    6.248981    2.307918    65.146217    35.163319    7.099465    11.336353    -27.771599    23.280367    -5.543198    -1.239528    -9.840838    -37.006691    30.277180    43.052155    13.497972    -0.685251    -23.307970    -0.000000    0.000000    -0.000000    6.432291    17.893894    1.531050    6.119926    -0.000000    -0.000001    6.119925    0.000002    0.000002    8.110808    8.911431    0.492800    8.012262    -0.000001    0.000003    8.012260    0.000002    -0.000000    9.068235    -8.889323    -0.768412    8.958432    0.000000    0.000001    8.958416    -0.000000    -0.000000    10.403429    -17.722706    -1.163596    9.904587    -0.000000    0.000001    9.904598    -0.000000    0.000001    -1.814661    -7.190526    10.837996    0.000000    7.206808    -0.000001    1.281663    -4.746984    6.784965    0.000000    1.550646    0.000000    1.190145    -6.473459    -20.234957    -0.000000    8.730236    0.000000    3.340599    -8.835051    -2.277173    -0.000001    4.760011    0.000002    
56.085880    83.766785    28.012428    -0.664829    7.826575    0.752315    0.411620    -22.186722    1.089907    0.558507    15.309168    0.826012    -1.637558    -5.301550    -1.316698    0.932856    2.850222    -1.215028    -2.640907    6.228921    -0.547253    -63.131630    44.621014    -12.234412    -10.345390    -23.886450    -24.266907    -4.933162    4.962449    7.742087    29.255648    35.889297    -41.080746    -12.165339    -0.110960    23.317226    -0.000000    0.000000    -0.000000    -4.430566    17.949617    -2.081885    -4.214518    0.000000    -0.000003    -4.214520    -0.000003    -0.000000    -3.667314    8.981874    -1.151574    -3.622284    0.000000    -0.000005    -3.622277    0.000000    -0.000002    -3.367533    -8.984717    -1.849999    -3.326158    0.000001    -0.000000    -3.326161    0.000000    -0.000002    -3.185668    -17.973934    -3.630961    -3.030045    -0.000001    -0.000000    -3.030027    -0.000000    0.000001    7.384573    6.251263    2.311734    65.111046    35.234779    7.129379    11.329680    -27.730312    23.296299    -5.518261    -1.222600    -9.790663    -36.969460    30.302755    43.053570    13.512286    -0.691417    -23.307802    -0.000000    0.000000    -0.000000    6.540950    17.890280    1.495083    6.223376    -0.000000    -0.000002    6.223388    -0.000000    -0.000003    8.187790    8.909742    0.479581    8.088338    -0.000000    -0.000001    8.088343    -0.000001    0.000001    9.131387    -8.887783    -0.725362    9.020809    0.000000    -0.000000    9.020814    0.000000    0.000000    10.454471    -17.719975    -1.081474    9.953300    -0.000001    0.000000    9.953284    0.000000    0.000001    -1.816539    -7.189478    10.820797    0.000000    7.260114    0.000000    1.253648    -4.860787    6.740799    -0.000000    1.571727    0.000005    1.173158    -6.490866    -20.248787    0.000000    8.834681    -0.000000    3.322595    -8.867144    -2.323450    -0.000000    4.738673    0.000001    
56.117775    83.763069    28.034327    -0.688315    7.819561    0.778223    0.415798    -22.177702    1.101393    0.545292    15.312953    0.839769    -1.641290    -5.314119    -1.329343    0.926927    2.845121    -1.226652    -2.641850    6.229939    -0.554091    -63.127602    44.637802    -12.241758    -10.347566    -23.887009    -24.271049    -4.915787    4.969447    7.722723    29.253489    35.890881    -41.074463    -12.168249    -0.112219    23.317217    -0.000000    0.000000    -0.000000    -4.389751    17.950546    -2.152665    -4.175677    0.000002    0.000002    -4.175672    -0.000000    0.000002    -3.658859    8.981964    -1.181995    -3.613919    -0.000005    0.000002    -3.613930    0.000000    -0.000002    -3.374517    -8.984653    -1.874339    -3.333052    0.000001    0.000001    -3.333058    0.000001    0.000000    -3.208942    -17.973543    -3.684634    -3.052177    0.000001    -0.000001    -3.052198    -0.000001    -0.000001    7.375660    6.252751    2.318840    65.106422    35.277382    7.149089    11.297878    -27.684975    23.267586    -5.499430    -1.202090    -9.759633    -36.913265    30.342340    43.051319    13.535002    -0.701207    -23.307518    -0.000000    0.000000    -0.000000    6.624629    17.887459    1.465399    6.303068    0.000002    -0.000001    6.303074    0.000000    0.000002    8.252398    8.908315    0.467585    8.152163    -0.000002    -0.000002    8.152174    0.000002    0.000002    9.187940    -8.886388    -0.683383    9.076713    -0.000000    -0.000000    9.076708    -0.000001    -0.000001    10.504762    -17.717281    -0.999686    10.001251    -0.000000    -0.000000    10.001254    -0.000001    -0.000001    -1.812205    -7.189847    10.802204    -0.000000    7.307539    0.000002    1.265564    -4.875697    6.751084    0.000000    1.595712    -0.000001    1.160091    -6.505007    -20.274040    -0.000000    8.919218    0.000001    3.318365    -8.899352    -2.334765    0.000001    4.719618    -0.000002    
56.152618    83.763817    28.066021    -0.715512    7.812955    0.816359    0.420436    -22.182129    1.113463    0.534125    15.319435    0.853377    -1.637777    -5.294274    -1.343389    0.922368    2.870165    -1.241743    -2.647972    6.231805    -0.543359    -63.113388    44.656773    -12.247046    -10.347116    -23.873343    -24.281645    -4.956519    4.963118    7.719816    29.227753    35.909142    -41.050838    -12.184120    -0.119058    23.317188    -0.000000    0.000000    -0.000000    -4.361173    17.951178    -2.189427    -4.148484    0.000003    0.000002    -4.148484    -0.000005    0.000002    -3.658467    8.981965    -1.196026    -3.613551    0.000000    0.000000    -3.613540    -0.000005    0.000003    -3.387693    -8.984531    -1.890951    -3.346070    0.000002    0.000001    -3.346077    -0.000001    0.000003    -3.236712    -17.973091    -3.722317    -3.078614    -0.000001    0.000000    -3.078600    0.000002    0.000002    7.372827    6.251385    2.325432    65.101959    35.308807    7.170037    11.271747    -27.670393    23.228294    -5.431907    -1.238117    -9.767269    -36.873264    30.370321    43.050789    13.551622    -0.708359    -23.307314    -0.000000    0.000000    -0.000000    6.688368    17.885275    1.447447    6.363776    0.000002    0.000002    6.363776    -0.000002    0.000000    8.301267    8.907226    0.460830    8.200469    -0.000002    0.000000    8.200474    -0.000001    0.000002    9.230531    -8.885337    -0.647407    9.118807    -0.000001    -0.000001    9.118811    -0.000000    -0.000001    10.542387    -17.715261    -0.929441    10.037161    0.000000    -0.000001    10.037158    -0.000000    -0.000000    -1.815410    -7.179669    10.762567    0.000000    7.343791    -0.000001    1.332095    -4.915881    6.765843    0.000000    1.588819    -0.000002    1.146984    -6.504441    -20.307011    -0.000000    8.988116    -0.000002    3.319692    -8.918069    -2.341475    0.000000    4.711251    -0.000002    
